<svg xmlns="http://www.w3.org/2000/svg" width="32" height="32" viewBox="0 0 32 32">
  <g id="Gruppe_6" data-name="Gruppe 6" transform="translate(-1227 -73)">
    <circle id="Ellipse_1" data-name="Ellipse 1" cx="16" cy="16" r="16" transform="translate(1227 73)" fill="#070910"/>
    <path id="chatbot_13727399" d="M18.365,0H13.885A3.139,3.139,0,0,0,10.75,3.135V9.581a1.17,1.17,0,0,0,1.823.972l2.345-1.594h3.446A3.139,3.139,0,0,0,21.5,5.824V3.136A3.139,3.139,0,0,0,18.365,0ZM20.6,5.823a2.242,2.242,0,0,1-2.24,2.24H14.781a.448.448,0,0,0-.252.077L12.073,9.808a.275.275,0,0,1-.426-.228V3.135A2.242,2.242,0,0,1,13.886.9h4.479a2.242,2.242,0,0,1,2.24,2.24V5.823Zm-4.031,7.615h-.448A3.566,3.566,0,0,0,15.1,10.93a.448.448,0,0,0-.641.626,2.675,2.675,0,0,1,.768,1.881v4.479A2.691,2.691,0,0,1,12.541,20.6H5.375a2.691,2.691,0,0,1-2.687-2.687V13.438A2.691,2.691,0,0,1,5.375,10.75H8.958a.448.448,0,0,0,.448-.448V8.063a.448.448,0,1,0-.9,0V9.854H5.375a3.587,3.587,0,0,0-3.583,3.583H1.344A1.345,1.345,0,0,0,0,14.781v2.688a1.345,1.345,0,0,0,1.344,1.344h.562A3.59,3.59,0,0,0,5.375,21.5h7.167a3.589,3.589,0,0,0,3.47-2.687h.562a1.345,1.345,0,0,0,1.344-1.344V14.781A1.345,1.345,0,0,0,16.573,13.438ZM1.344,17.917A.448.448,0,0,1,.9,17.469V14.781a.448.448,0,0,1,.448-.448h.448v3.583Zm15.677-.448a.449.449,0,0,1-.448.448h-.448V14.333h.448a.449.449,0,0,1,.448.448ZM4.479,16.125a1.792,1.792,0,1,0,1.792-1.792A1.793,1.793,0,0,0,4.479,16.125Zm2.688,0a.9.9,0,1,1-.9-.9A.9.9,0,0,1,7.167,16.125Zm4.479,1.792a1.792,1.792,0,1,0-1.792-1.792A1.793,1.793,0,0,0,11.646,17.917Zm0-2.688a.9.9,0,1,1-.9.9A.9.9,0,0,1,11.646,15.229Z" transform="translate(1232.25 78.25)" fill="#5dc9bd" stroke="#5ec8bd" stroke-width="0.5"/>
  </g>
</svg>
