<svg xmlns="http://www.w3.org/2000/svg" width="32.5" height="32.5" viewBox="0 0 32.5 32.5"><g transform="translate(-371.75 -73.75)"><path d="M27.333,0H20.667A4.672,4.672,0,0,0,16,4.667V14.26a1.742,1.742,0,0,0,2.713,1.447L22.2,13.335h5.129A4.672,4.672,0,0,0,32,8.668v-4A4.672,4.672,0,0,0,27.333,0Zm3.333,8.667A3.337,3.337,0,0,1,27.333,12H22a.667.667,0,0,0-.375.115L17.969,14.6a.409.409,0,0,1-.635-.34V4.667a3.337,3.337,0,0,1,3.333-3.333h6.667a3.337,3.337,0,0,1,3.333,3.333v4ZM24.667,20H24a5.307,5.307,0,0,0-1.524-3.732.667.667,0,1,0-.953.932A3.981,3.981,0,0,1,22.665,20v6.667a4,4,0,0,1-4,4H8a4,4,0,0,1-4-4V20a4,4,0,0,1,4-4h5.333A.667.667,0,0,0,14,15.333V12a.667.667,0,1,0-1.333,0v2.667H8A5.339,5.339,0,0,0,2.667,20H2a2,2,0,0,0-2,2v4a2,2,0,0,0,2,2h.836A5.343,5.343,0,0,0,8,32H18.667a5.342,5.342,0,0,0,5.164-4h.836a2,2,0,0,0,2-2V22A2,2,0,0,0,24.667,20ZM2,26.667A.667.667,0,0,1,1.333,26V22A.667.667,0,0,1,2,21.333h.667v5.333ZM25.333,26a.668.668,0,0,1-.667.667H24V21.333h.667a.668.668,0,0,1,.667.667ZM6.667,24a2.667,2.667,0,1,0,2.667-2.667A2.669,2.669,0,0,0,6.667,24Zm4,0a1.333,1.333,0,1,1-1.333-1.333A1.336,1.336,0,0,1,10.667,24Zm6.667,2.667A2.667,2.667,0,1,0,14.667,24,2.669,2.669,0,0,0,17.333,26.667Zm0-4A1.333,1.333,0,1,1,16,24,1.335,1.335,0,0,1,17.333,22.667Z" transform="translate(372 74)" fill="#5dc9bd"/><path d="M20.667-.25h6.917v.008a4.923,4.923,0,0,1,4.667,4.91v4a4.922,4.922,0,0,1-4.917,4.917H22.281l-3.427,2.329a1.992,1.992,0,0,1-3.1-1.653V4.667A4.922,4.922,0,0,1,20.667-.25Zm6.417.5H20.667A4.422,4.422,0,0,0,16.25,4.667V14.26A1.492,1.492,0,0,0,18.575,15.5l3.552-2.414h5.206A4.422,4.422,0,0,0,31.75,8.668v-4A4.422,4.422,0,0,0,27.333.251Zm-6.415.833h6.667a3.587,3.587,0,0,1,3.583,3.583v4.25h-.01a3.588,3.588,0,0,1-3.575,3.333H22a.418.418,0,0,0-.235.072L18.11,14.805a.648.648,0,0,1-.364.113.658.658,0,0,1-.314-.081.647.647,0,0,1-.346-.58V4.667A3.587,3.587,0,0,1,20.668,1.083Zm9.75,7.333V4.667a3.087,3.087,0,0,0-3.083-3.083H20.668a3.087,3.087,0,0,0-3.083,3.083v9.592a.146.146,0,0,0,.083.139l.005,0a.161.161,0,0,0,.072.018.152.152,0,0,0,.086-.028l3.654-2.483A.917.917,0,0,1,22,11.75h5.333a3.087,3.087,0,0,0,3.083-3.083ZM13.333,11.083A.918.918,0,0,1,14.25,12v3.333a.918.918,0,0,1-.917.917H8A3.754,3.754,0,0,0,4.25,20v6.667A3.754,3.754,0,0,0,8,30.417H18.665a3.754,3.754,0,0,0,3.75-3.75V20a3.733,3.733,0,0,0-1.071-2.625A.916.916,0,0,1,22,15.818h0a.908.908,0,0,1,.656.275,5.553,5.553,0,0,1,1.589,3.656h.422A2.253,2.253,0,0,1,26.917,22v4a2.253,2.253,0,0,1-2.25,2.25h-.646a5.583,5.583,0,0,1-5.354,4H8a5.583,5.583,0,0,1-5.354-4H2A2.253,2.253,0,0,1-.25,26V22A2.253,2.253,0,0,1,2,19.75h.422A5.59,5.59,0,0,1,8,14.417h4.417V12A.918.918,0,0,1,13.333,11.083Zm0,4.667a.417.417,0,0,0,.417-.417V12a.417.417,0,1,0-.833,0v2.917H8A5.089,5.089,0,0,0,2.917,20v.25H2A1.752,1.752,0,0,0,.25,22v4A1.752,1.752,0,0,0,2,27.75H3.03l.048.187A5.083,5.083,0,0,0,8,31.75H18.667a5.083,5.083,0,0,0,4.922-3.813l.048-.187h1.03A1.752,1.752,0,0,0,26.417,26V22a1.752,1.752,0,0,0-1.75-1.75H23.75V20A5.058,5.058,0,0,0,22.3,16.443a.412.412,0,0,0-.3-.125h0a.413.413,0,0,0-.291.118.417.417,0,0,0-.007.589A4.23,4.23,0,0,1,22.915,20v6.667a4.255,4.255,0,0,1-4.25,4.25H8a4.255,4.255,0,0,1-4.25-4.25V20A4.255,4.255,0,0,1,8,15.75ZM2,21.083h.917v5.833H2A.918.918,0,0,1,1.083,26V22A.918.918,0,0,1,2,21.083Zm.417.5H2A.417.417,0,0,0,1.583,22v4A.417.417,0,0,0,2,26.417h.417Zm6.917-.5A2.917,2.917,0,1,1,6.417,24,2.92,2.92,0,0,1,9.333,21.083Zm0,5.333A2.417,2.417,0,1,0,6.917,24,2.419,2.419,0,0,0,9.333,26.417Zm8-5.333A2.917,2.917,0,1,1,14.417,24,2.92,2.92,0,0,1,17.333,21.083Zm0,5.333A2.417,2.417,0,1,0,14.917,24,2.419,2.419,0,0,0,17.333,26.417Zm6.417-5.333h.917a.918.918,0,0,1,.917.917v4a.918.918,0,0,1-.917.917H23.75Zm.917,5.333A.417.417,0,0,0,25.083,26V22a.417.417,0,0,0-.417-.417H24.25v4.833Zm-15.333-4A1.583,1.583,0,1,1,7.75,24,1.585,1.585,0,0,1,9.333,22.417Zm0,2.667A1.083,1.083,0,1,0,8.25,24,1.085,1.085,0,0,0,9.333,25.083Zm8-2.667A1.583,1.583,0,1,1,15.75,24,1.585,1.585,0,0,1,17.333,22.417Zm0,2.667A1.083,1.083,0,1,0,16.25,24,1.085,1.085,0,0,0,17.333,25.083Z" transform="translate(372 74)" fill="#5ec8bd"/></g></svg>